<svg xmlns="http://www.w3.org/2000/svg" width="48.509" height="37.314" viewBox="0 0 48.509 37.314"><defs><style>.a{fill:#c7d40f;}</style></defs><g transform="translate(0 -45)"><path class="a" d="M8.707,176.865A1.866,1.866,0,0,0,6.841,175H1.866a1.866,1.866,0,1,0,0,3.731H6.841A1.866,1.866,0,0,0,8.707,176.865Z" transform="translate(0 -113.83)"/><path class="a" d="M11.063,91.4l4.5,2.133a1.866,1.866,0,1,0,1.6-3.371l-4.5-2.133a1.866,1.866,0,1,0-1.6,3.371Z" transform="translate(-8.753 -37.523)"/><path class="a" d="M326.841,175h-4.975a1.866,1.866,0,0,0,0,3.731h4.975a1.866,1.866,0,0,0,0-3.731Z" transform="translate(-280.198 -113.83)"/><path class="a" d="M315.724,93.718a1.859,1.859,0,0,0,.8-.18l4.5-2.133a1.866,1.866,0,1,0-1.6-3.371l-4.5,2.133a1.866,1.866,0,0,0,.8,3.552Z" transform="translate(-274.819 -37.523)"/><path class="a" d="M74.2,73.608H72.95l-3.11-26.956A1.866,1.866,0,0,0,67.986,45H50.572a1.866,1.866,0,0,0-1.853,1.652l-3.11,26.956H44.353a4.353,4.353,0,1,0,0,8.707H74.2a4.353,4.353,0,0,0,0-8.707ZM52.235,48.731h7.044V73.608H49.365l2.87-24.876Z" transform="translate(-35.025)"/></g></svg>