<svg xmlns="http://www.w3.org/2000/svg" viewBox="0 0 477.88 500"><defs><style>.cls-1{fill:#5b5a5a;}</style></defs><g id="Layer_2" data-name="Layer 2"><g id="Layer_1-2" data-name="Layer 1"><path class="cls-1" d="M261,313.34a13.34,13.34,0,1,0,13.33,13.33A13.35,13.35,0,0,0,261,313.34Z"/><path class="cls-1" d="M166.7,210.83a17.09,17.09,0,1,0,17.09,17.08A17.1,17.1,0,0,0,166.7,210.83Z"/><path class="cls-1" d="M315.48,87.55A178.46,178.46,0,0,0,254,71.06V24H224V71.06a178.4,178.4,0,0,0-61.47,16.49L150,65.78h0l-26,15h0l12.59,21.81a181,181,0,0,0-45,45L50.79,124h0l-15,26h0l40.77,23.54A178.4,178.4,0,0,0,60.07,235H35v30H60.07a178.35,178.35,0,0,0,16.49,61.46L35.79,350h0l15,26h0l40.82-23.57a181,181,0,0,0,45,45L124,419.21h0l26,15h0l12.57-21.77A178,178,0,0,0,224,428.93V476h30V428.93a178,178,0,0,0,61.47-16.49L328,434.21h0l26-15h0l-12.6-21.81a181,181,0,0,0,45-45L427.23,376h0l15-26h0l-40.77-23.54A178.23,178.23,0,0,0,417.94,265h25.12V235H417.94a178.17,178.17,0,0,0-16.48-61.47L442.23,150h0l-15-26h0l-40.82,23.56a181,181,0,0,0-45-45M166.7,275a47.09,47.09,0,1,1,47.09-47.09A47.14,47.14,0,0,1,166.7,275ZM261,370a43.34,43.34,0,1,1,43.33-43.34A43.39,43.39,0,0,1,261,370ZM300,240.49a42.75,42.75,0,1,1,42.76-42.75A42.8,42.8,0,0,1,300,240.49Z"/><circle class="cls-1" cx="300.04" cy="197.74" r="12.75"/><ellipse class="cls-1" cx="239.01" cy="24" rx="42.67" ry="24"/><ellipse class="cls-1" cx="345.19" cy="64.67" rx="24" ry="42.67" transform="translate(115.58 330.41) rotate(-59.78)"/><rect class="cls-1" x="318.29" y="60.27" width="29.63" height="50.29" transform="translate(88.25 -156.04) rotate(30.22)"/><ellipse class="cls-1" cx="436.33" cy="135.42" rx="24" ry="42.67" transform="translate(-9.58 234.85) rotate(-29.81)"/><ellipse class="cls-1" cx="130.06" cy="65.12" rx="42.67" ry="24" transform="matrix(0.86, -0.5, 0.5, 0.86, -15.1, 74.31)"/><ellipse class="cls-1" cx="43.92" cy="138.73" rx="42.67" ry="24" transform="translate(-98.29 107.86) rotate(-60.19)"/><rect class="cls-1" x="400.69" y="122.21" width="29.63" height="50.29" transform="translate(336.78 -286.42) rotate(60.19)"/><ellipse class="cls-1" cx="453.88" cy="249.93" rx="24" ry="42.67" transform="translate(-0.74 1.34) rotate(-0.17)"/><rect class="cls-1" x="415.07" y="224.86" width="29.63" height="50.29" transform="translate(678.61 -180.61) rotate(89.83)"/><ellipse class="cls-1" cx="132.69" cy="435.34" rx="24" ry="42.67" transform="translate(-310.28 330.9) rotate(-59.78)"/><rect class="cls-1" x="129.96" y="389.46" width="29.63" height="50.29" transform="translate(61.21 845.73) rotate(-149.78)"/><ellipse class="cls-1" cx="41.55" cy="364.59" rx="24" ry="42.67" transform="translate(-175.76 68.91) rotate(-29.81)"/><rect class="cls-1" x="47.56" y="327.51" width="29.63" height="50.29" transform="translate(-212.6 582.11) rotate(-119.81)"/><ellipse class="cls-1" cx="24" cy="250.08" rx="24" ry="42.67" transform="translate(-0.74 0.07) rotate(-0.17)"/><rect class="cls-1" x="33.19" y="224.87" width="29.63" height="50.29" transform="translate(-201.87 298.75) rotate(-90.17)"/><ellipse class="cls-1" cx="433.8" cy="362.18" rx="42.67" ry="24" transform="matrix(0.5, -0.86, 0.86, 0.5, -97.49, 554.75)"/><rect class="cls-1" x="398.24" y="324.95" width="29.63" height="50.29" transform="translate(923.47 169.37) rotate(120.22)"/><ellipse class="cls-1" cx="348.9" cy="441.02" rx="42.67" ry="24" transform="translate(-173.09 231.83) rotate(-29.81)"/><rect class="cls-1" x="322.15" y="395.05" width="29.63" height="50.29" transform="translate(838.24 617.25) rotate(150.19)"/><ellipse class="cls-1" cx="239.01" cy="476" rx="42.67" ry="24" transform="translate(-1.4 0.71) rotate(-0.17)"/></g></g></svg>