<svg id="Layer_1" data-name="Layer 1" xmlns="http://www.w3.org/2000/svg" viewBox="0 0 259.16 318.9"><defs><style>.cls-1{fill:#5c5b5b;}.cls-2{fill:#c7d318;}.cls-3,.cls-4{fill:none;stroke-miterlimit:10;}.cls-3{stroke:#c7d318;stroke-width:9px;}.cls-4{stroke:#5c5b5b;stroke-width:16px;}</style></defs><polygon class="cls-1" points="254.52 42.37 216.76 41.99 217.47 5.33 254.52 42.37"/><path class="cls-2" d="M437,288.73l.14,272H187V251.48c0-1.5,213,.21,213,.21l-.71,36.66Z" transform="translate(-182.47 -246.36)"/><path class="cls-3" d="M437,288.73l-37.76-.38.71-36.66s-213-1.71-213-.21V560.76H437.13l-.14-272" transform="translate(-182.47 -246.36)"/><line class="cls-3" x1="217.47" y1="5.33" x2="254.52" y2="42.37"/><path class="cls-1" d="M218.81,340.32h188.5c9.65,0,9.67-15,0-15H218.81c-9.65,0-9.67,15,0,15Z" transform="translate(-182.47 -246.36)"/><path class="cls-1" d="M218.81,384.29h188.5c9.65,0,9.67-15,0-15H218.81c-9.65,0-9.67,15,0,15Z" transform="translate(-182.47 -246.36)"/><path class="cls-1" d="M218.81,428.76h188.5c9.65,0,9.67-15,0-15H218.81c-9.65,0-9.67,15,0,15Z" transform="translate(-182.47 -246.36)"/><path class="cls-1" d="M218.81,471.21h85.4c9.66,0,9.67-15,0-15h-85.4c-9.65,0-9.67,15,0,15Z" transform="translate(-182.47 -246.36)"/><path class="cls-1" d="M218.81,515.68h86.92c9.65,0,9.67-15,0-15H218.81c-9.65,0-9.67,15,0,15Z" transform="translate(-182.47 -246.36)"/><circle class="cls-4" cx="185.93" cy="244.13" r="42.45"/><line class="cls-3" x1="218.98" y1="4.61" x2="255.73" y2="45.23"/></svg>