<svg xmlns="http://www.w3.org/2000/svg" width="41.5" height="38.904" viewBox="0 0 41.5 38.904"><defs><style>.a{fill:#c7d40f;}</style></defs><g transform="translate(0)"><path class="a" d="M41.121,33.9,24.992,17.767a6.006,6.006,0,0,0-8.483,0L.38,33.9a1.3,1.3,0,1,0,1.833,1.834L3.243,34.7V51.189a3.729,3.729,0,0,0,3.729,3.729h6.484a.811.811,0,0,0,.811-.811v-12a4.053,4.053,0,0,1,4.053-4.053h4.863a4.053,4.053,0,0,1,4.053,4.053v12a.811.811,0,0,0,.811.811H34.53a3.729,3.729,0,0,0,3.729-3.729V34.7l1.029,1.029A1.3,1.3,0,1,0,41.121,33.9Z" transform="translate(0 -16.013)"/></g></svg>